<svg width="40" height="40" viewBox="0 0 40 40" fill="none" xmlns="http://www.w3.org/2000/svg">
<rect width="40" height="40" rx="6" fill="url(#paint0_linear_1145_110)"/>
<path d="M19.9223 31.32C18.1089 31.32 16.3383 30.9893 14.6102 30.328C12.8822 29.6453 11.3462 28.6853 10.0023 27.448L12.6583 24.12C13.9596 25.272 15.2076 26.104 16.4023 26.616C17.6183 27.128 18.8983 27.384 20.2423 27.384C21.1809 27.384 21.9916 27.2773 22.6743 27.064C23.3569 26.8293 23.8796 26.4987 24.2423 26.072C24.6263 25.6453 24.8183 25.144 24.8183 24.568C24.8183 23.8 24.5409 23.2133 23.9863 22.808C23.4316 22.3813 22.4823 22.0507 21.1383 21.816L16.6903 21.048C14.7916 20.728 13.3409 20.056 12.3383 19.032C11.3569 18.008 10.8663 16.6853 10.8663 15.064C10.8663 13.6773 11.2183 12.472 11.9223 11.448C12.6476 10.424 13.6609 9.64533 14.9623 9.112C16.2849 8.55733 17.8529 8.28 19.6663 8.28C21.3089 8.28 22.9409 8.55733 24.5623 9.112C26.2049 9.66667 27.6556 10.4347 28.9143 11.416L26.4183 14.872C24.0716 13.08 21.7143 12.184 19.3463 12.184C18.5143 12.184 17.7889 12.2907 17.1703 12.504C16.5516 12.7173 16.0716 13.016 15.7303 13.4C15.4103 13.7627 15.2503 14.2 15.2503 14.712C15.2503 15.3947 15.4956 15.928 15.9863 16.312C16.4769 16.6747 17.2983 16.952 18.4503 17.144L22.6743 17.848C24.9143 18.2107 26.5889 18.9253 27.6983 19.992C28.8076 21.0373 29.3623 22.424 29.3623 24.152C29.3623 25.6027 28.9783 26.872 28.2103 27.96C27.4423 29.0267 26.3436 29.8587 24.9143 30.456C23.5063 31.032 21.8423 31.32 19.9223 31.32Z" fill="white"/>
<defs>
<linearGradient id="paint0_linear_1145_110" x1="0" y1="20" x2="40" y2="20" gradientUnits="userSpaceOnUse">
<stop stop-color="#2979FF"/>
<stop offset="1" stop-color="#4C589E"/>
</linearGradient>
</defs>
</svg>
